<?xml version="1.0" standalone="no"?><!DOCTYPE svg PUBLIC "-//W3C//DTD SVG 1.1//EN" "http://www.w3.org/Graphics/SVG/1.1/DTD/svg11.dtd"><svg t="1514341274225" class="icon" style="" viewBox="0 0 1024 1024" version="1.1" xmlns="http://www.w3.org/2000/svg" p-id="1884" xmlns:xlink="http://www.w3.org/1999/xlink" width="400" height="400"><defs><style type="text/css"></style></defs><path d="M377.2 264.4c0 14.5-11.8 26.3-26.3 26.3H147v-10.6c0-5.4 2.2-10.5 6-14.2L354.9 69.1c3.7-3.6 8.7-5.6 13.8-5.6h8.5v200.9z m-208 9.4H351c5.2 0 9.4-4.2 9.4-9.4V87.5L169.2 273.8zM531.8 283.5h197.6c4.7 0 8.5-3.8 8.5-8.5s-3.8-8.5-8.5-8.5H531.8c-4.7 0-8.5 3.8-8.5 8.5s3.8 8.5 8.5 8.5z" fill="" p-id="1885"></path><path d="M371.7 80.4h382.1c58.6 0 106 47.5 106 106v650.8c0 58.6-47.5 106-106 106H270c-58.6 0-106-47.5-106-106V279.7h-17v557.5c0 67.9 55.1 123 123 123h483.7c67.9 0 123-55.1 123-123V186.5c0-67.9-55.1-123-123-123h-382v16.9z" fill="" p-id="1886"></path><path d="M294.3 514.7h435c4.7 0 8.5-3.8 8.5-8.5s-3.8-8.5-8.5-8.5h-435c-4.7 0-8.5 3.8-8.5 8.5s3.9 8.5 8.5 8.5zM294.3 745.9h435c4.7 0 8.5-3.8 8.5-8.5s-3.8-8.5-8.5-8.5h-435c-4.7 0-8.5 3.8-8.5 8.5s3.9 8.5 8.5 8.5z" fill="" p-id="1887"></path></svg>